<svg width="397" height="158" viewBox="0 0 397 158" fill="none" xmlns="http://www.w3.org/2000/svg">
<path fill-rule="evenodd" clip-rule="evenodd" d="M195.798 1.54747V0.543701H197.798V1.54747H195.798ZM195.798 5.56257V3.55502H197.798V5.56257H195.798ZM195.798 9.57766V7.57012H197.798V9.57766H195.798ZM195.798 13.5928V11.5852H197.798V13.5928H195.798ZM195.798 17.6079V15.6003H197.798V17.6079H195.798ZM195.798 21.6229V19.6154H197.798V21.6229H195.798ZM195.798 25.638V23.6305H197.798V25.638H195.798ZM195.798 29.6531V27.6456H197.798V29.6531H195.798ZM195.798 33.6682V31.6607H197.798V33.6682H195.798ZM195.798 37.6833V35.6758H197.798V37.6833H195.798ZM195.798 41.6984V39.6909H197.798V41.6984H195.798ZM195.798 45.7135V43.706H197.798V45.7135H195.798ZM195.798 49.7286V47.7211H197.798V49.7286H195.798ZM195.798 53.7437V51.7361H197.798V53.7437H195.798ZM195.798 57.7588V55.7512H197.798V57.7588H195.798ZM195.798 61.7739V59.7663H197.798V61.7739H195.798ZM195.798 65.789V63.7814H197.798V65.789H195.798ZM195.798 69.8041V67.7965H197.798V69.8041H195.798ZM195.798 73.8191V71.8116H197.798V73.8191H195.798ZM195.798 77.8342V75.8267H197.798V77.8342H195.798ZM195.798 81.8493V79.8418H197.798V81.8493H195.798ZM195.798 85.8644V83.8569H197.798V85.8644H195.798ZM195.798 89.8795V87.872H197.798V89.8795H195.798ZM195.798 93.8946V91.8871H197.798V93.8946H195.798ZM195.798 97.9097V95.9021H197.798V97.9097H195.798ZM195.798 101.925V99.9172H197.798V101.925H195.798ZM195.798 104.936V103.932H197.798V104.936H195.798Z" fill="url(#paint0_linear_3948_214)" fill-opacity="0.7"/>
<path fill-rule="evenodd" clip-rule="evenodd" d="M197.665 2.08023C197.66 1.74648 197.658 1.41551 197.658 1.0874L195.658 1.08745C195.658 1.42554 195.66 1.76576 195.665 2.10795L197.665 2.08023ZM197.799 6.09592C197.767 5.41689 197.738 4.74629 197.715 4.08451L195.716 4.1538C195.739 4.82624 195.769 5.50561 195.801 6.19049L197.799 6.09592ZM197.945 8.93015C197.93 8.65652 197.915 8.38405 197.901 8.11334L195.904 8.2192C195.918 8.49223 195.933 8.76538 195.948 9.03912C195.969 9.43806 195.99 9.83826 196.011 10.2412L198.009 10.1365C197.988 9.73309 197.966 9.33037 197.945 8.93015ZM198.193 14.2002C198.169 13.5177 198.141 12.8391 198.11 12.1653L196.112 12.2578C196.143 12.9257 196.171 13.5965 196.194 14.2697L198.193 14.2002ZM198.264 18.2873C198.266 17.6025 198.26 16.9201 198.248 16.2409L196.248 16.2774C196.261 16.944 196.266 17.6119 196.264 18.2807L198.264 18.2873ZM198.139 22.3925C198.181 21.7065 198.211 21.0215 198.231 20.3383L196.232 20.2789C196.212 20.9428 196.183 21.6068 196.142 22.2702L198.139 22.3925ZM197.733 26.499C197.829 25.8152 197.909 25.131 197.976 24.4473L195.985 24.2523C195.921 24.9103 195.844 25.567 195.752 26.2217L197.733 26.499ZM196.965 30.5725C197.128 29.8975 197.272 29.2207 197.399 28.5429L195.433 28.174C195.312 28.8199 195.175 29.4633 195.021 30.1036L196.965 30.5725ZM195.763 34.5565C196.004 33.9007 196.223 33.2417 196.422 32.5801L194.507 32.0039C194.319 32.6288 194.112 33.2502 193.886 33.8676L195.763 34.5565ZM194.083 38.3749C194.407 37.7515 194.707 37.1235 194.984 36.4916L193.153 35.6868C192.893 36.2802 192.611 36.8693 192.308 37.4537L194.083 38.3749ZM191.922 41.947C192.326 41.3688 192.705 40.7851 193.061 40.1963L191.35 39.1608C191.016 39.7126 190.661 40.2598 190.282 40.8019L191.922 41.947ZM189.317 45.2115C189.792 44.6871 190.243 44.1565 190.671 43.6201L189.108 42.3721C188.706 42.8759 188.282 43.375 187.834 43.8688L189.317 45.2115ZM186.35 48.1239C186.878 47.6607 187.385 47.1913 187.869 46.7162L186.469 45.2878C186.011 45.7367 185.533 46.1808 185.032 46.6199L186.35 48.1239ZM183.095 50.6923C183.669 50.2833 184.223 49.8683 184.757 49.4476L183.519 47.8768C183.011 48.277 182.483 48.6726 181.935 49.0631L183.095 50.6923ZM179.628 52.9359C180.228 52.5828 180.809 52.2242 181.372 51.8604L180.287 50.1804C179.747 50.529 179.189 50.8731 178.613 51.2126L179.628 52.9359ZM175.987 54.8988C176.619 54.5871 177.233 54.2704 177.83 53.9486L176.882 52.1878C176.305 52.4981 175.712 52.804 175.102 53.1055L175.987 54.8988ZM172.249 56.5985C172.897 56.3273 173.529 56.0514 174.146 55.771L173.318 53.9502C172.72 54.2222 172.106 54.49 171.477 54.7536L172.249 56.5985ZM168.432 58.0762C169.088 57.8415 169.73 57.6027 170.358 57.3597L169.636 55.4944C169.024 55.7311 168.398 55.9641 167.758 56.1931L168.432 58.0762ZM164.55 59.3649C165.212 59.1613 165.861 58.9539 166.498 58.7427L165.868 56.8444C165.245 57.0509 164.61 57.2539 163.962 57.4533L164.55 59.3649ZM161.581 60.2287C161.92 60.1355 162.256 60.0413 162.589 59.9463L162.039 58.0231C161.713 58.1164 161.383 58.2088 161.051 58.3003C160.733 58.3875 160.415 58.4744 160.095 58.5609L160.618 60.4914C160.94 60.4042 161.261 60.3167 161.581 60.2287ZM156.709 61.5179C157.368 61.35 158.022 61.1806 158.673 61.0098L158.165 59.0753C157.519 59.245 156.869 59.4131 156.215 59.5799L156.709 61.5179ZM152.802 62.4874C153.46 62.3284 154.115 62.1681 154.766 62.0066L154.284 60.0654C153.637 60.2259 152.986 60.3852 152.332 60.5433L152.802 62.4874ZM148.885 63.4111C149.541 63.26 150.194 63.1078 150.844 62.9545L150.386 61.0079C149.739 61.1603 149.089 61.3117 148.436 61.4621L148.885 63.4111ZM144.955 64.2966C145.61 64.1522 146.262 64.0068 146.911 63.8606L146.472 61.9095C145.825 62.0551 145.176 62.1998 144.524 62.3436L144.955 64.2966ZM141.016 65.1496C141.674 65.0096 142.33 64.8689 142.984 64.7274L142.561 62.7726C141.91 62.9136 141.256 63.0538 140.6 63.1933L141.016 65.1496ZM137.071 65.9743C137.733 65.8382 138.392 65.7014 139.05 65.564L138.64 63.6063C137.985 63.7433 137.327 63.8796 136.668 64.0154L137.071 65.9743ZM133.133 66.7735C133.792 66.6415 134.45 66.5089 135.106 66.3758L134.708 64.4158C134.054 64.5485 133.398 64.6807 132.74 64.8125L133.133 66.7735ZM129.187 67.5548C129.845 67.4259 130.501 67.2967 131.156 67.1671L130.768 65.2052C130.114 65.3345 129.459 65.4635 128.803 65.5921L129.187 67.5548ZM125.236 68.3217C125.895 68.1948 126.553 68.0676 127.21 67.9402L126.829 65.9768C126.174 66.1041 125.516 66.231 124.858 66.3577L125.236 68.3217ZM121.285 69.0773C121.945 68.9518 122.605 68.826 123.263 68.7001L122.888 66.7357C122.23 66.8615 121.571 66.9871 120.911 67.1125L121.285 69.0773ZM118.634 69.5796C118.86 69.5368 119.086 69.4941 119.312 69.4514L118.94 67.4862C118.283 67.6106 117.625 67.7349 116.966 67.8591L117.337 69.8244C117.77 69.7428 118.202 69.6612 118.634 69.5796ZM113.387 70.5681L115.36 70.197L114.99 68.2315L113.017 68.6025L113.387 70.5681ZM109.436 71.3111L111.411 70.9394L111.042 68.9739L109.066 69.3456L109.436 71.3111ZM105.488 72.0564C106.146 71.9317 106.804 71.8073 107.462 71.6831L107.091 69.7178C106.433 69.8421 105.775 69.9666 105.116 70.0913L105.488 72.0564ZM101.542 72.8077C102.199 72.6819 102.857 72.5564 103.515 72.4311L103.141 70.4664C102.482 70.5918 101.824 70.7174 101.166 70.8434L101.542 72.8077ZM97.5976 73.5682C98.2548 73.4405 98.9126 73.3132 99.5707 73.1863L99.1921 71.2225C98.5331 71.3496 97.8743 71.477 97.2161 71.605L97.5976 73.5682ZM93.6592 74.3408C94.3146 74.211 94.9706 74.0817 95.6274 73.9529L95.2424 71.9903C94.5845 72.1193 93.9271 72.2489 93.2705 72.379L93.6592 74.3408ZM89.7222 75.13C90.3765 74.9973 91.0318 74.8652 91.688 74.7336L91.295 72.7726C90.6373 72.9044 89.9804 73.0369 89.3244 73.17L89.7222 75.13ZM85.7888 75.9391C86.4432 75.8026 87.0989 75.6668 87.7558 75.5317L87.3529 73.5727C86.6942 73.7081 86.0367 73.8443 85.3803 73.9813L85.7888 75.9391ZM81.8641 76.7711C82.5177 76.6303 83.1728 76.4903 83.8294 76.3512L83.4147 74.3946C82.756 74.5342 82.0987 74.6747 81.4428 74.816L81.8641 76.7711ZM77.9511 77.6296C78.6002 77.4845 79.2511 77.3405 79.9037 77.1973L79.4752 75.2438C78.8201 75.3875 78.1667 75.5321 77.5149 75.6777L77.9511 77.6296ZM74.0373 78.5219C74.6857 78.371 75.336 78.2213 75.9884 78.0726L75.5439 76.1226C74.8887 76.2719 74.2353 76.4224 73.584 76.574L74.0373 78.5219ZM70.134 79.4508C70.7825 79.2929 71.4334 79.1363 72.0865 78.9809L71.6236 77.0352C70.9672 77.1914 70.3129 77.3488 69.6609 77.5075L70.134 79.4508ZM66.2462 80.4204C66.8934 80.2549 67.5433 80.0909 68.1958 79.9282L67.712 77.9876C67.0558 78.1512 66.402 78.3162 65.7508 78.4827L66.2462 80.4204ZM62.3772 81.436C63.0178 81.2633 63.6614 81.0921 64.308 80.9224L63.8003 78.9879C63.1495 79.1587 62.5015 79.331 61.8565 79.505L62.3772 81.436ZM58.5199 82.5065C59.1561 82.3247 59.7957 82.1447 60.4386 81.9663L59.9039 80.0391C59.2562 80.2188 58.6116 80.4002 57.9704 80.5835L58.5199 82.5065ZM54.6752 83.6398C55.31 83.4467 55.9488 83.2555 56.5913 83.0661L56.0259 81.1477C55.378 81.3386 54.7336 81.5315 54.093 81.7264L54.6752 83.6398ZM50.8572 84.841C51.4903 84.6349 52.1278 84.431 52.7695 84.2292L52.1696 82.3213C51.5216 82.5251 50.8777 82.731 50.2381 82.9392L50.8572 84.841ZM47.0708 86.119C47.6994 85.8989 48.3331 85.6812 48.9716 85.4658L48.3323 83.5707C47.6868 83.7885 47.0459 84.0086 46.4098 84.2314L47.0708 86.119ZM43.3214 87.4841C43.9403 87.2497 44.5647 87.0179 45.1945 86.7887L44.5106 84.9093C43.8728 85.1414 43.2402 85.3762 42.6129 85.6138L43.3214 87.4841ZM39.6159 88.9483C40.2238 88.6976 40.8379 88.4498 41.458 88.2048L40.7233 86.3447C40.0941 86.5932 39.4707 86.8447 38.8533 87.0994L39.6159 88.9483ZM35.9628 90.5256C36.5585 90.2561 37.1611 89.99 37.7704 89.7269L36.9778 87.8907C36.3581 88.1582 35.745 88.429 35.1385 88.7034L35.9628 90.5256ZM32.3677 92.2352C32.9514 91.9431 33.543 91.6547 34.1423 91.3698L33.2835 89.5635C32.6725 89.854 32.0688 90.1484 31.4727 90.4466L32.3677 92.2352ZM28.8536 94.0927C29.4227 93.7746 30.0007 93.4606 30.5874 93.1505L29.6531 91.3822C29.0528 91.6994 28.4609 92.0209 27.8777 92.3469L28.8536 94.0927ZM25.4448 96.117C25.9946 95.7696 26.5545 95.4268 27.1245 95.0885L26.1036 93.3687C25.5182 93.7162 24.9424 94.0686 24.3765 94.4262L25.4448 96.117ZM22.17 98.3303C22.6946 97.9502 23.2308 97.5753 23.7784 97.2054L22.6589 95.5481C22.0937 95.9299 21.5396 96.3173 20.9966 96.7106L22.17 98.3303ZM19.0644 100.757C19.5574 100.341 20.0635 99.9295 20.5825 99.5241L19.3513 97.9479C18.8126 98.3688 18.2863 98.7962 17.773 99.2302L19.0644 100.757ZM16.1726 103.425C16.6269 102.966 17.0963 102.513 17.5803 102.067L16.2248 100.596C15.719 101.063 15.2276 101.536 14.7511 102.018L16.1726 103.425ZM14.1888 105.584C14.3971 105.339 14.6095 105.095 14.826 104.854L13.3363 103.519C13.1084 103.774 12.8846 104.03 12.6649 104.289C12.4441 104.548 12.2269 104.808 12.0133 105.068L13.5575 106.338C13.7644 106.087 13.9748 105.836 14.1888 105.584ZM11.1932 109.41C11.5647 108.893 11.9503 108.374 12.3508 107.854L10.7662 106.633C10.352 107.171 9.95284 107.708 9.56812 108.245L11.1932 109.41ZM9.04298 112.646C9.3761 112.102 9.72403 111.557 10.0874 111.011L8.42191 109.904C8.045 110.47 7.68382 111.036 7.33781 111.601L9.04298 112.646ZM7.14838 116.021C7.43768 115.455 7.74214 114.886 8.06242 114.316L6.31863 113.337C5.9855 113.93 5.66866 114.521 5.3674 115.111L7.14838 116.021ZM5.53065 119.531C5.77277 118.943 6.03014 118.353 6.30356 117.76L4.4873 116.922C4.20232 117.54 3.93396 118.156 3.68141 118.769L5.53065 119.531ZM4.20984 123.163C4.40187 122.556 4.60898 121.946 4.83208 121.333L2.95256 120.649C2.71974 121.289 2.50359 121.926 2.30313 122.559L4.20984 123.163ZM3.19952 126.895C3.33997 126.273 3.49489 125.648 3.66537 125.018L1.73485 124.495C1.5569 125.153 1.39523 125.806 1.24872 126.454L3.19952 126.895ZM2.50296 130.702C2.59218 130.07 2.69487 129.433 2.81229 128.791L0.844894 128.431C0.722488 129.101 0.615509 129.765 0.522614 130.422L2.50296 130.702ZM2.1109 134.558C2.15143 133.92 2.20398 133.276 2.26996 132.625L0.280167 132.424C0.211563 133.1 0.156998 133.769 0.114929 134.431L2.1109 134.558ZM2.00093 138.437C1.9976 137.798 2.00426 137.151 2.02257 136.496L0.0233459 136.44C0.00437927 137.118 -0.00248718 137.788 0.000961304 138.448L2.00093 138.437ZM2.13766 142.328C2.09744 141.689 2.06459 141.039 2.04108 140.379L0.0423584 140.451C0.0665436 141.13 0.100342 141.798 0.141617 142.454L2.13766 142.328ZM2.47108 146.222C2.40421 145.587 2.34097 144.938 2.28383 144.277L0.29126 144.449C0.34964 145.125 0.414108 145.786 0.482071 146.432L2.47108 146.222ZM2.92845 150.131C2.85004 149.496 2.76968 148.845 2.69048 148.175L0.70433 148.41C0.78421 149.085 0.865173 149.742 0.943527 150.376L2.92845 150.131ZM3.38237 154.082C3.32198 153.446 3.24869 152.784 3.16811 152.1L1.18182 152.334C1.26147 153.01 1.3329 153.656 1.39134 154.271L3.38237 154.082ZM3.5526 157.132C3.5526 156.798 3.54417 156.455 3.52876 156.102L1.53067 156.19C1.545 156.517 1.5526 156.832 1.5526 157.132H3.5526Z" fill="url(#paint1_linear_3948_214)" fill-opacity="0.7"/>
<path fill-rule="evenodd" clip-rule="evenodd" d="M198.864 2.08023C198.869 1.74648 198.872 1.41551 198.872 1.0874L200.872 1.08745C200.872 1.42554 200.869 1.76576 200.864 2.10795L198.864 2.08023ZM198.731 6.09592C198.763 5.41689 198.791 4.74629 198.814 4.08451L200.813 4.1538C200.79 4.82624 200.761 5.50561 200.728 6.19049L198.731 6.09592ZM198.585 8.93015C198.599 8.65652 198.614 8.38405 198.628 8.11334L200.625 8.2192C200.611 8.49223 200.596 8.76538 200.582 9.03912C200.56 9.43806 200.539 9.83826 200.518 10.2412L198.521 10.1365C198.542 9.73309 198.563 9.33037 198.585 8.93015ZM198.336 14.2002C198.36 13.5177 198.388 12.8391 198.42 12.1653L200.417 12.2578C200.387 12.9257 200.358 13.5965 200.335 14.2697L198.336 14.2002ZM198.265 18.2873C198.263 17.6025 198.269 16.9201 198.281 16.2409L200.281 16.2774C200.269 16.944 200.263 17.6119 200.265 18.2807L198.265 18.2873ZM198.391 22.3925C198.349 21.7065 198.318 21.0215 198.298 20.3383L200.297 20.2789C200.317 20.9428 200.346 21.6068 200.387 22.2702L198.391 22.3925ZM198.796 26.499C198.701 25.8152 198.62 25.131 198.553 24.4473L200.544 24.2523C200.608 24.9103 200.686 25.567 200.777 26.2217L198.796 26.499ZM199.564 30.5725C199.402 29.8975 199.258 29.2207 199.13 28.5429L201.096 28.174C201.217 28.8199 201.354 29.4633 201.509 30.1036L199.564 30.5725ZM200.766 34.5565C200.525 33.9007 200.306 33.2417 200.107 32.5801L202.023 32.0039C202.211 32.6288 202.417 33.2502 202.644 33.8676L200.766 34.5565ZM202.446 38.3749C202.123 37.7515 201.823 37.1235 201.545 36.4916L203.376 35.6868C203.637 36.2802 203.918 36.8693 204.221 37.4537L202.446 38.3749ZM204.608 41.947C204.204 41.3688 203.824 40.7851 203.468 40.1963L205.179 39.1608C205.513 39.7126 205.869 40.2598 206.247 40.8019L204.608 41.947ZM207.213 45.2115C206.738 44.6871 206.286 44.1565 205.858 43.6201L207.421 42.3721C207.823 42.8759 208.248 43.375 208.695 43.8688L207.213 45.2115ZM210.179 48.1239C209.651 47.6607 209.145 47.1913 208.66 46.7162L210.06 45.2878C210.518 45.7367 210.997 46.1808 211.498 46.6199L210.179 48.1239ZM213.434 50.6923C212.86 50.2833 212.306 49.8683 211.772 49.4476L213.011 47.8768C213.518 48.277 214.046 48.6726 214.595 49.0631L213.434 50.6923ZM216.901 52.9359C216.302 52.5828 215.72 52.2242 215.157 51.8604L216.242 50.1804C216.782 50.529 217.34 50.8731 217.916 51.2126L216.901 52.9359ZM220.542 54.8988C219.911 54.5871 219.297 54.2704 218.699 53.9486L219.648 52.1878C220.224 52.4981 220.817 52.804 221.427 53.1055L220.542 54.8988ZM224.28 56.5985C223.633 56.3273 223 56.0514 222.383 55.771L223.211 53.9502C223.809 54.2222 224.423 54.49 225.053 54.7536L224.28 56.5985ZM228.097 58.0762C227.441 57.8415 226.8 57.6027 226.172 57.3597L226.893 55.4944C227.505 55.7311 228.131 55.9641 228.771 56.1931L228.097 58.0762ZM231.979 59.3649C231.318 59.1613 230.668 58.9539 230.032 58.7427L230.661 56.8444C231.284 57.0509 231.919 57.2539 232.567 57.4533L231.979 59.3649ZM234.948 60.2287C234.609 60.1355 234.274 60.0413 233.941 59.9463L234.49 58.0231C234.816 58.1164 235.146 58.2088 235.479 58.3003C235.796 58.3875 236.115 58.4744 236.434 58.5609L235.911 60.4914C235.589 60.4042 235.268 60.3167 234.948 60.2287ZM239.82 61.5179C239.162 61.35 238.507 61.1806 237.856 61.0098L238.364 59.0753C239.01 59.245 239.66 59.4131 240.314 59.5799L239.82 61.5179ZM243.727 62.4874C243.069 62.3284 242.415 62.1681 241.763 62.0066L242.245 60.0654C242.892 60.2259 243.543 60.3852 244.197 60.5433L243.727 62.4874ZM247.645 63.4111C246.988 63.26 246.335 63.1078 245.685 62.9545L246.144 61.0079C246.79 61.1603 247.44 61.3117 248.093 61.4621L247.645 63.4111ZM251.574 64.2966C250.919 64.1522 250.267 64.0068 249.618 63.8606L250.058 61.9095C250.704 62.0551 251.353 62.1998 252.005 62.3436L251.574 64.2966ZM255.514 65.1496C254.855 65.0096 254.199 64.8689 253.545 64.7274L253.968 62.7726C254.62 62.9136 255.273 63.0538 255.929 63.1933L255.514 65.1496ZM259.458 65.9743C258.797 65.8382 258.137 65.7014 257.48 65.564L257.889 63.6063C258.544 63.7433 259.202 63.8796 259.861 64.0154L259.458 65.9743ZM263.396 66.7735C262.737 66.6415 262.079 66.5089 261.423 66.3758L261.821 64.4158C262.475 64.5485 263.131 64.6807 263.789 64.8125L263.396 66.7735ZM267.342 67.5548C266.684 67.4259 266.028 67.2967 265.373 67.1671L265.761 65.2052C266.415 65.3345 267.07 65.4635 267.726 65.5921L267.342 67.5548ZM271.293 68.3217C270.634 68.1948 269.976 68.0676 269.319 67.9402L269.7 65.9768C270.356 66.1041 271.013 66.231 271.671 66.3577L271.293 68.3217ZM275.245 69.0773C274.584 68.9518 273.925 68.826 273.266 68.7001L273.642 66.7357C274.299 66.8615 274.958 66.9871 275.618 67.1125L275.245 69.0773ZM277.895 69.5796C277.669 69.5368 277.443 69.4941 277.217 69.4514L277.589 67.4862C278.246 67.6106 278.904 67.7349 279.563 67.8591L279.192 69.8244C278.76 69.7428 278.327 69.6612 277.895 69.5796ZM283.143 70.5681L281.17 70.197L281.54 68.2315L283.512 68.6025L283.143 70.5681ZM287.093 71.3111L285.118 70.9394L285.488 68.9739L287.463 69.3456L287.093 71.3111ZM291.041 72.0564C290.383 71.9317 289.725 71.8073 289.067 71.6831L289.438 69.7178C290.096 69.8421 290.755 69.9666 291.413 70.0913L291.041 72.0564ZM294.988 72.8077C294.33 72.6819 293.673 72.5564 293.015 72.4311L293.389 70.4664C294.047 70.5918 294.706 70.7174 295.364 70.8434L294.988 72.8077ZM298.932 73.5682C298.274 73.4405 297.617 73.3132 296.959 73.1863L297.337 71.2225C297.996 71.3496 298.655 71.477 299.313 71.605L298.932 73.5682ZM302.87 74.3408C302.215 74.211 301.559 74.0817 300.902 73.9529L301.287 71.9903C301.945 72.1193 302.602 72.2489 303.259 72.379L302.87 74.3408ZM306.807 75.13C306.153 74.9973 305.497 74.8652 304.841 74.7336L305.234 72.7726C305.892 72.9044 306.549 73.0369 307.205 73.17L306.807 75.13ZM310.741 75.9391C310.086 75.8026 309.43 75.6668 308.774 75.5317L309.176 73.5727C309.835 73.7081 310.493 73.8443 311.149 73.9813L310.741 75.9391ZM314.665 76.7711C314.012 76.6303 313.356 76.4903 312.7 76.3512L313.115 74.3946C313.773 74.5342 314.431 74.6747 315.087 74.816L314.665 76.7711ZM318.578 77.6296C317.929 77.4845 317.278 77.3405 316.626 77.1973L317.054 75.2438C317.709 75.3875 318.363 75.5321 319.014 75.6777L318.578 77.6296ZM322.492 78.5219C321.844 78.371 321.193 78.2213 320.541 78.0726L320.985 76.1226C321.641 76.2719 322.294 76.4224 322.945 76.574L322.492 78.5219ZM326.395 79.4508C325.747 79.2929 325.096 79.1363 324.443 78.9809L324.906 77.0352C325.562 77.1914 326.216 77.3488 326.868 77.5075L326.395 79.4508ZM330.283 80.4204C329.636 80.2549 328.986 80.0909 328.333 79.9282L328.817 77.9876C329.474 78.1512 330.127 78.3162 330.778 78.4827L330.283 80.4204ZM334.152 81.436C333.512 81.2633 332.868 81.0921 332.221 80.9224L332.729 78.9879C333.38 79.1587 334.028 79.331 334.673 79.505L334.152 81.436ZM338.009 82.5065C337.373 82.3247 336.734 82.1447 336.091 81.9663L336.625 80.0391C337.273 80.2188 337.918 80.4002 338.559 80.5835L338.009 82.5065ZM341.854 83.6398C341.219 83.4467 340.581 83.2555 339.938 83.0661L340.503 81.1477C341.151 81.3386 341.796 81.5315 342.436 81.7264L341.854 83.6398ZM345.672 84.841C345.039 84.6349 344.402 84.431 343.76 84.2292L344.36 82.3213C345.008 82.5251 345.652 82.731 346.291 82.9392L345.672 84.841ZM349.458 86.119C348.83 85.8989 348.196 85.6812 347.558 85.4658L348.197 83.5707C348.842 83.7885 349.483 84.0086 350.119 84.2314L349.458 86.119ZM353.208 87.4841C352.589 87.2497 351.965 87.0179 351.335 86.7887L352.019 84.9093C352.657 85.1414 353.289 85.3762 353.916 85.6138L353.208 87.4841ZM356.913 88.9483C356.306 88.6976 355.691 88.4498 355.071 88.2048L355.806 86.3447C356.435 86.5932 357.059 86.8447 357.676 87.0994L356.913 88.9483ZM360.566 90.5256C359.971 90.2561 359.368 89.99 358.759 89.7269L359.551 87.8907C360.171 88.1582 360.784 88.429 361.391 88.7034L360.566 90.5256ZM364.162 92.2352C363.578 91.9431 362.986 91.6547 362.387 91.3698L363.246 89.5635C363.857 89.854 364.46 90.1484 365.057 90.4466L364.162 92.2352ZM367.676 94.0927C367.107 93.7746 366.529 93.4606 365.942 93.1505L366.876 91.3822C367.476 91.6994 368.068 92.0209 368.652 92.3469L367.676 94.0927ZM371.085 96.117C370.535 95.7696 369.975 95.4268 369.405 95.0885L370.426 93.3687C371.011 93.7162 371.587 94.0686 372.153 94.4262L371.085 96.117ZM374.359 98.3303C373.835 97.9502 373.298 97.5753 372.751 97.2054L373.87 95.5481C374.436 95.9299 374.99 96.3173 375.533 96.7106L374.359 98.3303ZM377.465 100.757C376.972 100.341 376.466 99.9295 375.947 99.5241L377.178 97.9479C377.717 98.3688 378.243 98.7962 378.756 99.2302L377.465 100.757ZM380.357 103.425C379.902 102.966 379.433 102.513 378.949 102.067L380.305 100.596C380.81 101.063 381.302 101.536 381.778 102.018L380.357 103.425ZM382.341 105.584C382.132 105.339 381.92 105.095 381.703 104.854L383.193 103.519C383.421 103.774 383.645 104.03 383.864 104.289C384.085 104.548 384.302 104.808 384.516 105.068L382.972 106.338C382.765 106.087 382.555 105.836 382.341 105.584ZM385.336 109.41C384.965 108.893 384.579 108.374 384.179 107.854L385.763 106.633C386.177 107.171 386.576 107.708 386.961 108.245L385.336 109.41ZM387.486 112.646C387.153 112.102 386.805 111.557 386.442 111.011L388.107 109.904C388.484 110.47 388.845 111.036 389.191 111.601L387.486 112.646ZM389.381 116.021C389.092 115.455 388.787 114.886 388.467 114.316L390.211 113.337C390.544 113.93 390.861 114.521 391.162 115.111L389.381 116.021ZM390.999 119.531C390.757 118.943 390.499 118.353 390.226 117.76L392.042 116.922C392.327 117.54 392.595 118.156 392.848 118.769L390.999 119.531ZM392.319 123.163C392.127 122.556 391.92 121.946 391.697 121.333L393.577 120.649C393.81 121.289 394.026 121.926 394.226 122.559L392.319 123.163ZM393.33 126.895C393.189 126.273 393.034 125.648 392.864 125.018L394.794 124.495C394.972 125.153 395.134 125.806 395.281 126.454L393.33 126.895ZM394.026 130.702C393.937 130.07 393.834 129.433 393.717 128.791L395.684 128.431C395.807 129.101 395.914 129.765 396.007 130.422L394.026 130.702ZM394.418 134.558C394.378 133.92 394.325 133.276 394.259 132.625L396.249 132.424C396.318 133.1 396.372 133.769 396.414 134.431L394.418 134.558ZM394.528 138.437C394.532 137.798 394.525 137.151 394.507 136.496L396.506 136.44C396.525 137.118 396.532 137.788 396.528 138.448L394.528 138.437ZM394.392 142.328C394.432 141.689 394.465 141.039 394.488 140.379L396.487 140.451C396.463 141.13 396.429 141.798 396.388 142.454L394.392 142.328ZM394.058 146.222C394.125 145.587 394.188 144.938 394.245 144.277L396.238 144.449C396.18 145.125 396.115 145.786 396.047 146.432L394.058 146.222ZM393.601 150.131C393.679 149.496 393.76 148.845 393.839 148.175L395.825 148.41C395.745 149.085 395.664 149.742 395.586 150.376L393.601 150.131ZM393.147 154.082C393.207 153.446 393.281 152.784 393.361 152.1L395.347 152.334C395.268 153.01 395.196 153.656 395.138 154.271L393.147 154.082ZM392.977 157.132C392.977 156.798 392.985 156.455 393.001 156.102L394.999 156.19C394.984 156.517 394.977 156.832 394.977 157.132H392.977Z" fill="url(#paint2_linear_3948_214)" fill-opacity="0.7"/>
<defs>
<linearGradient id="paint0_linear_3948_214" x1="196.018" y1="10.3704" x2="201.218" y2="10.5589" gradientUnits="userSpaceOnUse">
<stop stop-color="#15BFFD"/>
<stop offset="1" stop-color="#9C37FD"/>
</linearGradient>
<linearGradient id="paint1_linear_3948_214" x1="176.456" y1="15.7762" x2="100.289" y2="198.856" gradientUnits="userSpaceOnUse">
<stop stop-color="#15BFFD"/>
<stop offset="1" stop-color="#9C37FD"/>
</linearGradient>
<linearGradient id="paint2_linear_3948_214" x1="220.074" y1="15.7762" x2="296.24" y2="198.856" gradientUnits="userSpaceOnUse">
<stop stop-color="#15BFFD"/>
<stop offset="1" stop-color="#9C37FD"/>
</linearGradient>
</defs>
</svg>
